<svg xmlns="http://www.w3.org/2000/svg" viewBox="0 0 128 128"><path d="M14.55 86.88c10-7 10.35-22.43 10.04-33.43-.08-2.68-.39-5.39-.23-8.07.6-9.93 6.47-18.3 14.45-23.9 8.25-5.79 20.15-9.4 30.22-7.61 4.9.87 8.91 3.34 11.76 7.44a33 33 0 0 1 3.85 8.12c4.12.53 7.2 1.78 9.8 5.16 2.15 2.78 3.37 6.23 4.25 9.6a22 22 0 0 1 .68 3.37 16 16 0 0 1-.11 3.77c-.3 2.23-.88 4.42-1.37 6.6-1.09 4.9-1.35 9.43.09 14.28q.78 2.57 1.86 5.04c.63 1.47 2.23 4.58 2.39 6.04.05.42-.04.65-.37.91-1.57 1.25-6.57.87-8.6.58a17 17 0 0 1-3.56-.84c-3.54 6.2-9 10.59-15.87 12.58.2 1.97.56 3.97 1.04 5.9.54-.04 4.13.92 4.47 1.23.48.44 3.76 6.02 4.19 6.9q.1.2.11.44c0 .28-.14.51-.27.75 5.22 1.29 10.5 3.23 14.98 6.26-.4.26-.81.58-1.24.8-21.43 12.66-48.46 12.13-68.96-1.77l-1.14-.8c3-2.78 7.48-4.59 11.32-5.72l1.74-6.34c.1-.24.24-.49.47-.62.58-.33 3.64-1.02 4.4-1.15l2.23-8.4c-10.5-.23-23.56-1.82-32.62-7.12"/><path fill="#F9C9B6" d="M53.61 93.94c.47.28 1.02.47 1.44.8.3.26 1.32 1.81 2.64 3.03 4.6 4.27 9.84 5.83 16.02 5.6q.45 1.8.97 3.59c-2.68 1.5-3 1.31-3.42 1.73-.55.55-2.21 5.37-2.81 6.57-.36.92-.82.51-4.11 5.33q-2.74-2.1-5.58-4.05c-2.35-5.6-2.94-7.48-3.4-7.8-.56-.37-1.42-.1-2.14-.08-2.8.1-5.56-.67-7.99-2.05l3.33-12.6q2.53 0 5.05-.07m25.15-50.68c-.55-.1-1.24-.18-1.93-.18 2.3-1.6 4.59-3.44 6.67-5.4a448 448 0 0 1 6.59 24.5c1.48 6.46 1.88 10.85-.2 17.26-.43 1.35-.83 2.84-1.5 4.09a24.8 24.8 0 0 1-15.32 11.8 25 25 0 0 1-17.63-1.93 15 15 0 0 1-3.74-2.99c-4.02-4.2-8.48-9.26-9.41-15.1a12 12 0 0 0 2.52-2.1v-2.38c-1.09 1.73-2.51 3.38-4.6 3.84-2.55.56-5.65-.62-4.63-3.54a6 6 0 0 1-2.19-4.39 5.6 5.6 0 0 1 5.3-6.4 7.5 7.5 0 0 1 6.12 2.16v-1.85a13 13 0 0 0-2.43-1.24c.06-1.48.02-2.99.22-4.45.91-6.63 7.29-11.7 12.98-14.62-.5 1.55-1.17 3-2.15 4.19-.25.08-.58.14-.7.4-.08.21.04.43-.05.64-.27.62-1.03 1.31-1.5 1.84-.2-.37-.53-1.2-.97-1.33a.65.65 0 0 0-.86.63c0 .47.64 1.33.87 1.73q-.64.72-1.36 1.38c-.4-.37-1.22-1.3-1.78-1.3a.63.63 0 0 0-.61.65c.02.58 1 1.22 1.4 1.58l-.83.75q.63.05 1.26.07c-.2.4-.72 1.22-.58 1.68.1.34.47.56.8.46.48-.13 1.04-1.65 1.37-2.12q1.52-.02 3.03-.1c2.48.14 4.14-.13 6.12-.88a48 48 0 0 0 13.97-5.24q.43-.2.5-.2c.58.08 1.26-.32 1.82-.46 2.42-.61 5.03-.09 6.62 1.94.25.32.5.7.94.74.4.04.65-.24.6-.64-.06-.6-.63-1.14-1.02-1.57.53-.45 2.04-1.5 2.1-2.17.05-.42-.34-.66-.72-.65-.42 0-2.02 1.6-2.43 1.97a14 14 0 0 0-1.32-.7c.34-.57 1.4-2.05 1.22-2.66-.14-.44-.62-.54-.96-.28-.63.48-1.17 1.85-1.6 2.57"/><path fill="#9287FF" d="M28.15 117.03a41 41 0 0 1 10.48-5.21c2.52 3.51 6.85 6.2 11.27 7.15.31.06.7.09.98-.1.56-.4 1.67-2.82 2.02-3.55 1.34.56 2.84 1.04 4.12 1.72 2.5 1.47 5.07 3.62 7.65 5.51.82-1.26 3.08-4.76 4.27-5.49 1.6-.75 3.54-1.48 5.25-2.18.42.72 1.47 2.98 2.23 3.1 1.74.27 5.24-3.59 6.15-5.04a49 49 0 0 1 14.54 5.86c-21.23 12.77-48.6 12.28-68.96-1.77"/><path fill="#6C7DD8" d="M41.17 105.15c4.05 3.66 7.42 5 12.91 4.84-1.18 2.61-2.58 5.12-3.91 7.65-4.13-.99-8.13-3.16-10.53-6.75.4-1.92 1.03-3.84 1.53-5.74m37.54-.05c1.15 1.8 2.46 4.08 3.53 5.89-.77 1.33-3.76 5.15-5.45 5.52-.6-.97-3.6-5.8-4.13-7.03a15 15 0 0 0 6.05-4.38"/><path fill="#5D71DD" d="M61.98 14.78c9.56-.76 17.7 2.55 21.56 15.7.2 1.77-.14 4-.46 5.75a35 35 0 0 1-6.64 5.49 48 48 0 0 1-26.22 8.59c2.44-2.5 5.39-5.7 6.44-9.1.3-.98.38-2.04.56-3.04-3.8 1.7-7.06 3.51-10.1 6.4-2.87 2.7-5.18 6.1-5.78 10.07-.22 1.46-.2 2.98-.24 4.46-4.38-.87-8.94 1.82-9.1 6.52a8.2 8.2 0 0 0 2.03 5.94c-.18 3.86 3.47 5.19 7.04 4.3 1.29 6.73 6.29 12.31 11.16 16.82-11.55.2-24.68-1.03-35.25-6 7.8-6.82 9-19.95 8.94-30.17 0-3.42-.38-6.85-.3-10.27.15-6.65 2.96-12.87 7.32-17.82 7.27-8.25 18.17-12.95 29.04-13.64m22.95 16c3.44.28 6.52 1.98 8.6 4.73 2.47 3.29 4.84 10.17 4.6 14.22-.3 4.98-2.93 11-2.38 17.7.47 5.77 3.28 10.82 5.2 15.84-3.2.91-7.43.55-10.81-.55 1.16-3.27 2.16-6.48 2.42-9.96.41-5.45-1.16-10.9-2.5-16.13-1.68-6.54-3.85-14.1-5.56-20.3.1-.74.44-3.76.43-5.55m-32.03 20.7c2-.08 6.18-.88 6.18-.88 2.85 3.15.69 7-2.67 7a3.98 3.98 0 0 1-3.51-6.12m28.99-.72c0 5.22-8.1 5.22-8.1 0 0-5.37 8.1-5.37 8.1 0"/><path d="m41.22 62.53-.58 1.22a4.5 4.5 0 0 0-2.15-.24 7.6 7.6 0 0 1 1.44 5.11q-.67-.08-1.36-.14a6.3 6.3 0 0 0-1.3-4.34 5 5 0 0 0-1.08 1.9l-1.3-.39c.7-2.8 3.27-4.18 6.33-3.12m28.08-4.3c.13 1.17.32 2.39.98 3.54s1.67.67 1.86 2.28c.28 2.39-2.58 3.77-4.52 3.55q.01-.68.07-1.35c1.32.05 2.82-.6 3.07-1.6.2-.81-.39-.88-.87-1.3-1.4-1.17-1.81-3.33-1.94-5.05zm1.12 12.67c9.26-.6 11.56 15.12 2.1 16.6-10.5.73-11-16.02-2.1-16.6m8.24-13.01c-3.91.08-4.8-8.25-.97-9.03 4.22-.85 5.32 8.94.97 9.03m-21.28 3.34c-4 .62-5.16-8.02-1.38-8.96 4.12-1.03 5.55 8.31 1.38 8.96"/><path fill="#FC909F" d="M77.28 80.76c-1.14 6.32-7.76 7.48-10.9 1.96a7.3 7.3 0 0 1 10.9-1.96"/><path fill="#FFF" d="M40.1 72.78c0 1.72-2.68 1.72-2.68 0 0-1.77 2.67-1.77 2.67 0"/><path fill="#FFEDEF" d="M39.36 72.41c0 .42-.65.42-.65 0s.65-.42.65 0"/></svg>